<svg width="500" height="500" viewBox="0 0 500 500" fill="none" xmlns="http://www.w3.org/2000/svg">
<path d="M0 250C0 44.125 44.125 0 250 0C455.875 0 500 44.125 500 250C500 455.875 455.875 500 250 500C44.125 500 0 455.875 0 250Z" fill="black"/>
<mask id="mask0_16_110" style="mask-type:alpha" maskUnits="userSpaceOnUse" x="0" y="0" width="500" height="500">
<path d="M0 250C0 44.125 44.125 0 250 0C455.875 0 500 44.125 500 250C500 455.875 455.875 500 250 500C44.125 500 0 455.875 0 250Z" fill="#C4C4C4"/>
</mask>
<g mask="url(#mask0_16_110)">
<g filter="url(#filter0_d_16_110)">
<path d="M277.069 70.5883C275.601 70.9428 273.376 71.491 272.556 71.7372C271.735 71.9834 270.094 72.3116 268.863 72.7219C267.632 73.1322 263.939 74.6093 259.836 76.1685C240.142 83.8002 219.544 97.5043 194.269 119.743C179.58 132.791 46.9699 265.319 27.9318 286.08C13.1608 302.164 1.91845 314.638 -5.30292 323.09C-20.7304 341.061 -23.1102 344.426 -21.8792 346.724C-21.4689 347.462 -21.3048 348.693 -21.551 349.349C-21.7972 350.006 -21.7151 350.334 -21.3048 350.088C-20.8945 349.842 -19.9918 350.416 -19.3353 351.319C-18.1865 352.96 -18.1865 352.96 -13.6731 350.662C-8.99566 348.119 7.08829 337.369 25.552 324.321C68.3879 294.04 125.42 246.691 156.85 215.098C164.317 207.63 171.374 200.409 172.523 199.014L174.657 196.47L200.834 195.895C227.996 195.321 246.296 193.598 259.836 190.479C263.447 189.659 266.565 189.166 266.811 189.331C266.975 189.577 267.057 190.972 266.893 192.531C266.565 197.044 269.273 214.113 271.489 221.252C275.838 235.039 285.603 250.466 293.974 256.621C299.964 261.052 308.58 257.523 310.304 249.892C310.714 248.25 311.042 215.098 311.206 176.201C311.288 112.111 311.206 104.972 309.893 98.9814C307.842 89.3803 302.18 80.2716 300.128 76.907C298.077 73.5425 296.764 72.7219 296.764 72.7219C296.764 72.7219 295.533 72.1693 294.302 71.6552C293.071 71.1411 291.101 70.5883 291.101 70.5883C291.101 70.5883 282.396 69.3022 277.069 70.5883ZM270.832 132.791C270.832 139.93 270.176 151.829 269.437 159.296L268.042 172.836L265.17 172.754C263.611 172.754 259.18 172.262 255.323 171.77C244.655 170.292 232.592 170.621 215.934 172.836C207.563 173.985 199.439 175.134 197.88 175.462C195.09 175.955 195.254 175.708 202.393 168.979C217.329 154.947 234.315 140.997 246.706 132.709C254.01 127.867 268.288 119.907 269.93 119.907C270.668 119.907 270.914 123.025 270.832 132.791Z" fill="white"/>
<path d="M361.51 180.304C360.525 180.796 359.54 184.653 353.468 213.867C346.985 245.05 337.876 276.808 335.086 277.956C334.347 278.203 329.506 279.516 324.336 280.829C301.359 286.737 272.145 297.815 249.004 309.386C209.943 328.916 185.489 347.38 168.338 370.193C152.5 391.201 150.531 407.941 162.43 419.84C174.493 431.903 195.993 433.626 222.17 424.599C246.706 416.147 280.762 394.893 308.662 370.685C324.172 357.227 332.378 348.447 342.389 334.661C347.477 327.603 356.914 311.027 357.817 307.58C358.309 305.611 359.294 304.954 364.956 302.903C375.542 299.128 390.888 292.399 392.611 290.84C397.042 286.819 397.37 282.142 393.678 276.561C390.888 272.294 387.523 271.392 377.512 271.966C370.126 272.458 369.388 272.376 369.798 271.063C370.865 267.617 372.752 254.815 373.655 245.871C374.147 240.455 374.721 234.874 374.804 233.479C375.788 223.386 376.034 201.722 375.296 192.941C374.229 180.796 373.573 179.811 366.68 179.894C364.382 179.894 362.084 180.14 361.51 180.304ZM305.462 326.454C304.313 327.275 303.082 327.767 302.59 327.685C302.18 327.521 302.015 327.685 302.344 328.014C303.493 329.08 299.636 333.266 288.64 343.113C265.909 363.3 247.117 374.952 226.437 381.599C222.088 382.994 218.067 384.143 217.575 384.143C217.082 384.143 213.8 385.456 210.271 387.015C203.542 390.052 201.163 390.134 201.655 387.262C203.296 378.891 229.309 360.51 262.38 344.344C280.844 335.317 289.05 331.624 298.733 327.932C307.021 324.813 308.252 324.485 305.462 326.454Z" fill="white"/>
<path d="M447.592 196.552C412.305 219.529 399.832 232.166 399.586 245.46C399.504 249.399 399.914 250.794 402.294 254.733C406.069 260.97 410.828 265.811 417.886 270.571C423.22 274.1 434.298 285.014 434.298 286.655C434.298 286.983 429.538 289.691 423.712 292.645C386.949 311.027 343.21 343.277 329.916 361.741C315.474 381.764 318.428 400.391 337.056 406.71C357.078 413.439 401.638 401.376 434.462 380.369C453.582 368.141 469.256 350.498 475.821 334.004C479.185 325.388 481.155 315.54 480.991 308.483C480.744 301.426 480.58 301.754 487.227 297.405C493.464 293.384 505.281 284.521 509.384 280.746C515.128 275.577 517.015 273.197 517.59 270.407C517.918 268.93 517.836 268.437 517.426 269.012C516.933 269.75 516.277 269.34 515.21 267.535C513.569 264.745 511.025 263.514 507.086 263.514C503.475 263.514 482.221 268.601 473.605 271.474L466.63 273.853L461.87 269.586C459.244 267.206 453.336 263.021 448.741 260.313C434.38 251.943 432.328 249.481 432.328 240.126C432.328 235.285 432.657 233.726 434.462 230.689C437.58 225.273 447.756 213.703 457.275 204.676C466.876 195.567 468.599 192.859 467.04 189.905C464.742 185.556 464.086 185.802 447.592 196.552ZM441.273 327.439C440.288 332.035 433.067 341.882 427.159 346.806C418.706 353.863 404.428 363.136 395.729 367.239C382.435 373.475 370.29 376.019 367.746 372.983C366.762 371.834 367.09 371.26 369.88 368.88C375.46 364.038 401.309 346.97 414.849 339.092C430.113 330.147 441.109 324.239 441.519 324.649C441.683 324.813 441.601 326.044 441.273 327.439Z" fill="white"/>
</g>
</g>
<defs>
<filter id="filter0_d_16_110" x="-102.158" y="-9.98327" width="699.95" height="520.298" filterUnits="userSpaceOnUse" color-interpolation-filters="sRGB">
<feFlood flood-opacity="0" result="BackgroundImageFix"/>
<feColorMatrix in="SourceAlpha" type="matrix" values="0 0 0 0 0 0 0 0 0 0 0 0 0 0 0 0 0 0 127 0" result="hardAlpha"/>
<feOffset/>
<feGaussianBlur stdDeviation="40"/>
<feComposite in2="hardAlpha" operator="out"/>
<feColorMatrix type="matrix" values="0 0 0 0 1 0 0 0 0 1 0 0 0 0 1 0 0 0 0.25 0"/>
<feBlend mode="normal" in2="BackgroundImageFix" result="effect1_dropShadow_16_110"/>
<feBlend mode="normal" in="SourceGraphic" in2="effect1_dropShadow_16_110" result="shape"/>
</filter>
</defs>
</svg>
